<svg width="24" height="24" viewBox="0 0 24 24" xmlns="http://www.w3.org/2000/svg">
    <path fill-rule="evenodd" clip-rule="evenodd"
          d="M8.69943 1.25001C8.71311 1.25001 8.72698 1.25001 8.74107 1.25001H15.2588C15.2729 1.25001 15.2868 1.25001 15.3005 1.25001C15.5203 1.24995 15.6889 1.2499 15.8362 1.26571C17.1904 1.41104 18.2269 2.52305 18.2898 3.87008C19.5325 4.24111 20.4025 5.4249 20.3417 6.75728C20.7402 6.93704 21.093 7.18502 21.3949 7.5298C22.0113 8.23385 22.1995 9.09539 22.2067 10.1006C22.2137 11.0723 22.0498 12.3015 21.8455 13.8337L21.431 16.9422C21.2713 18.1401 21.1421 19.1096 20.9411 19.8688C20.7319 20.659 20.4231 21.3141 19.8437 21.8215C19.2642 22.3288 18.574 22.5483 17.7631 22.6512C16.984 22.75 16.0059 22.75 14.7975 22.75H9.20257C7.99411 22.75 7.01601 22.75 6.23695 22.6512C5.42602 22.5483 4.7358 22.3288 4.15634 21.8215C3.57688 21.3141 3.26808 20.659 3.0589 19.8688C2.85795 19.1096 2.7287 18.1401 2.569 16.9422L2.15453 13.8337C1.95022 12.3015 1.7863 11.0723 1.79327 10.1006C1.80049 9.09539 1.98871 8.23385 2.60512 7.5298C2.90698 7.18502 3.25985 6.93703 3.65829 6.75728C3.59756 5.42494 4.46746 4.24117 5.71013 3.87011C5.77301 2.52306 6.8095 1.41104 8.16367 1.26571C8.31102 1.2499 8.47958 1.24995 8.69943 1.25001ZM7.23218 3.75001H16.7677C16.6612 3.22633 16.2264 2.8162 15.6762 2.75715C15.6199 2.75111 15.5397 2.75001 15.2588 2.75001H8.74107C8.46021 2.75001 8.38001 2.75111 8.32373 2.75715C7.77352 2.8162 7.3387 3.22633 7.23218 3.75001ZM5.18092 6.36744C6.12326 6.24998 7.31969 6.24999 8.79419 6.25001H15.2058C16.6803 6.24999 17.8768 6.24998 18.8191 6.36744C18.697 5.74074 18.1453 5.25001 17.4619 5.25001H6.5381C5.85473 5.25001 5.303 5.74074 5.18092 6.36744ZM5.25502 7.87068C4.43063 7.98663 4.01366 8.19811 3.7337 8.51788C3.45373 8.83766 3.29921 9.27892 3.29324 10.1114C3.28711 10.9652 3.43527 12.0897 3.64916 13.6939L4.04916 16.6939C4.21715 17.9538 4.3352 18.8285 4.50896 19.4849C4.6773 20.1209 4.87542 20.4574 5.14443 20.6929C5.41344 20.9284 5.77316 21.0803 6.42577 21.1631C7.09941 21.2486 7.98203 21.25 9.25311 21.25H14.7469C16.018 21.25 16.9006 21.2486 17.5743 21.1631C18.2269 21.0803 18.5866 20.9284 18.8556 20.6929C19.1246 20.4574 19.3227 20.1209 19.4911 19.4849C19.6648 18.8285 19.7829 17.9538 19.9509 16.6939L20.3509 13.6939C20.5648 12.0897 20.7129 10.9652 20.7068 10.1114C20.7008 9.27892 20.5463 8.83766 20.2663 8.51788C19.9864 8.19811 19.5694 7.98663 18.745 7.87068C17.8995 7.75177 16.7653 7.75001 15.1469 7.75001H8.85311C7.23473 7.75001 6.10051 7.75177 5.25502 7.87068ZM12.5388 10.9794C12.5573 10.9892 12.5757 10.999 12.5942 11.0089C12.881 11.1615 13.1641 11.3201 13.4188 11.4766C13.7088 11.6548 14.0182 11.8647 14.3233 12.0826C14.3397 12.0942 14.3559 12.1058 14.3722 12.1174C14.8676 12.4709 15.3168 12.7914 15.6322 13.1129C15.9909 13.4784 16.25 13.9166 16.25 14.5C16.25 15.0835 15.9909 15.5217 15.6322 15.8872C15.3168 16.2087 14.8676 16.5292 14.3722 16.8827C14.3559 16.8943 14.3397 16.9059 14.3233 16.9175C14.0182 17.1354 13.7088 17.3453 13.4188 17.5235C13.1641 17.6799 12.881 17.8386 12.5942 17.9912C12.5757 18.0011 12.5573 18.0109 12.5389 18.0207C12.0508 18.2805 11.5958 18.5227 11.2003 18.647C10.7407 18.7915 10.2318 18.8186 9.74067 18.496C9.27063 18.1873 9.0698 17.725 8.96659 17.259C8.87211 16.8324 8.83618 16.2879 8.79566 15.6739L8.79202 15.6189C8.76665 15.2349 8.75001 14.8507 8.75001 14.5C8.75001 14.1494 8.76665 13.7651 8.79202 13.3812L8.79566 13.3261C8.83618 12.7122 8.87212 12.1677 8.96659 11.7411C9.0698 11.2751 9.27063 10.8128 9.74067 10.5041C10.2319 10.1815 10.7407 10.2086 11.2003 10.353C11.5958 10.4774 12.0508 10.7196 12.5388 10.9794ZM10.5794 11.7501C10.5788 11.7498 10.5775 11.7491 10.5642 11.7578C10.5637 11.7581 10.5631 11.7585 10.5624 11.7589C10.5478 11.7678 10.4891 11.8035 10.4311 12.0655C10.3645 12.3664 10.3341 12.794 10.2888 13.4801C10.2647 13.8442 10.25 14.1933 10.25 14.5C10.25 14.8068 10.2647 15.1559 10.2888 15.52C10.3341 16.206 10.3645 16.6337 10.4311 16.9346C10.4891 17.1966 10.5478 17.2323 10.5624 17.2412C10.5631 17.2416 10.5637 17.242 10.5642 17.2423C10.5796 17.2524 10.5789 17.2498 10.5797 17.2498C10.5917 17.2506 10.6404 17.2507 10.7505 17.2161C10.9965 17.1388 11.3263 16.9667 11.8896 16.667C12.1593 16.5235 12.4136 16.3806 12.6335 16.2455C12.8844 16.0913 13.1636 15.9024 13.4519 15.6966C14.0122 15.2967 14.3499 15.0523 14.5616 14.8366C14.7404 14.6544 14.75 14.5727 14.75 14.5C14.75 14.4274 14.7404 14.3457 14.5616 14.1635C14.3499 13.9478 14.0122 13.7033 13.4519 13.3034C13.1636 13.0976 12.8844 12.9088 12.6335 12.7546C12.4136 12.6195 12.1593 12.4765 11.8896 12.3331C11.3263 12.0333 10.9965 11.8613 10.7505 11.784C10.6404 11.7494 10.5914 11.7494 10.5794 11.7501C10.5795 11.7502 10.5793 11.7501 10.5794 11.7501Z"
          />
</svg>
