<svg width="32" height="30" viewBox="0 0 32 30" xmlns="http://www.w3.org/2000/svg">
    <path fill-rule="evenodd" clip-rule="evenodd"
          d="M26 8.85721C26 9.3306 25.6162 9.71436 25.1429 9.71436L6.85714 9.71436C6.38375 9.71436 6 9.3306 6 8.85721C6 8.38383 6.38375 8.00007 6.85714 8.00007L25.1429 8.00007C25.6162 8.00007 26 8.38383 26 8.85721Z"
          />
    <path fill-rule="evenodd" clip-rule="evenodd"
          d="M26 14.5711C26 15.0445 25.6162 15.4282 25.1429 15.4282L6.85714 15.4282C6.38375 15.4282 6 15.0445 6 14.5711C6 14.0977 6.38375 13.7139 6.85714 13.7139L25.1429 13.7139C25.6162 13.7139 26 14.0977 26 14.5711Z"
          />
    <path fill-rule="evenodd" clip-rule="evenodd"
          d="M26 20.2854C26 20.7588 25.6162 21.1426 25.1429 21.1426L6.85714 21.1426C6.38375 21.1426 6 20.7588 6 20.2854C6 19.812 6.38375 19.4283 6.85714 19.4283L25.1429 19.4283C25.6162 19.4283 26 19.812 26 20.2854Z"
          />
</svg>
