<svg width="24" height="24" viewBox="0 0 24 24" fill="none" xmlns="http://www.w3.org/2000/svg" role="img" aria-label="Dns Protection Outline">
  <circle fill="none" stroke="currentColor" stroke-width="1.75" stroke-linecap="round" stroke-linejoin="round" cx="10" cy="10.2" r="6.7"/><path fill="none" stroke="currentColor" stroke-width="1.75" stroke-linecap="round" stroke-linejoin="round" d="M3.3 10.2h13.4M10 3.5c-1.55 1.78-2.4 4.1-2.4 6.7 0 2.6.85 4.92 2.4 6.7M10 3.5c1.55 1.78 2.4 4.1 2.4 6.7 0 2.6-.85 4.92-2.4 6.7M5.4 6h9.2M5.4 14.4h5.8"/><path fill="var(--mc-icon-bg, #ffffff)" d="M4.8 9.2h10.4v3.5H4.8z"/><text x="5.45" y="11.95" font-size="3.4" font-family="Arial, sans-serif" font-weight="700" fill="currentColor">DNS</text><path fill="none" stroke="currentColor" stroke-width="1.75" stroke-linecap="round" stroke-linejoin="round" d="M17.2 11.15 13.65 12.7v2.45c0 2.17 1.4 4.08 3.55 4.8 2.15-.72 3.55-2.63 3.55-4.8V12.7l-3.55-1.55Z"/>
</svg>
